mtllib mystical_blade_2024.mtl
o 0
usemtl 0
v -0.0 0.020000005140900612 0.2100428193807602
vn -0.0 1.0 -6.02278475980711e-08
vt 0 0
v -0.0 0.019999995827674866 0.055774182081222534
vn -0.0 1.0 -6.022785470349845e-08
vt 0 0
v -0.011755704879760742 0.016180336475372314 0.055774182081222534
vn -0.5877851843833923 0.8090170621871948 -4.448735779760682e-08
vt 0 0
v -0.011755704879760742 0.01618034578859806 0.2100428193807602
vn -0.5877851843833923 0.8090169429779053 -4.448735779760682e-08
vt 0 0
v -0.019021131098270416 0.0061803353019058704 0.055774182081222534
vn -0.9510565996170044 0.3090169429779053 -1.2556419015652409e-08
vt 0 0
v -0.019021131098270416 0.006180344149470329 0.2100428193807602
vn -0.9510565996170044 0.3090169429779053 -1.2556420792009249e-08
vt 0 0
v -0.019021129235625267 -0.006180344615131617 0.055774182081222534
vn -0.9510565400123596 -0.3090170919895172 2.3717108277310217e-08
vt 0 0
v -0.019021129235625267 -0.006180335767567158 0.2100428193807602
vn -0.9510565400123596 -0.3090170621871948 2.3717104724596538e-08
vt 0 0
v -0.011755703017115593 -0.01618034392595291 0.055774182081222534
vn -0.5877853035926819 -0.80901700258255 5.206146980185622e-08
vt 0 0
v -0.011755703017115593 -0.016180334612727165 0.2100428193807602
vn -0.5877852439880371 -0.80901700258255 5.206146980185622e-08
vt 0 0
v -0.0 -0.020000003278255463 0.055774182081222534
vn -0.0 -1.0 6.022785470349845e-08
vt 0 0
v -0.0 -0.019999993965029716 0.2100428193807602
vn -0.0 -1.0 6.022785470349845e-08
vt 0 0
v 0.011755703017115593 -0.01618034392595291 0.055774182081222534
vn 0.5877853035926819 -0.80901700258255 4.849938406437104e-08
vt 0 0
v 0.011755703017115593 -0.016180334612727165 0.2100428193807602
vn 0.5877852439880371 -0.80901700258255 4.8499380511657364e-08
vt 0 0
v 0.019021129235625267 -0.006180344615131617 0.055774182081222534
vn 0.9510565400123596 -0.3090170919895172 1.6568446170595053e-08
vt 0 0
v 0.019021129235625267 -0.006180335767567158 0.2100428193807602
vn 0.9510565400123596 -0.3090170621871948 1.6568444394238213e-08
vt 0 0
v 0.019021131098270416 0.0061803353019058704 0.055774182081222534
vn 0.9510565996170044 0.3090169429779053 -1.9705074905118636e-08
vt 0 0
v 0.019021131098270416 0.006180344149470329 0.2100428193807602
vn 0.9510565996170044 0.3090169429779053 -1.9705074905118636e-08
vt 0 0
v 0.011755704879760742 0.016180336475372314 0.055774182081222534
vn 0.5877851843833923 0.8090170621871948 -4.804943642966464e-08
vt 0 0
v 0.011755704879760742 0.01618034578859806 0.2100428193807602
vn 0.5877851843833923 0.8090169429779053 -4.804943642966464e-08
vt 0 0
v -0.0 0.019999995827674866 0.055774182081222534
vn -0.0 1.0 -6.022785470349845e-08
vt 0 0
v -0.0 0.020000005140900612 0.2100428193807602
vn -0.0 1.0 -6.02278475980711e-08
vt 0 0
v 0.011755704879760742 0.01618034578859806 0.2100428193807602
vn -0.0 2.970863590689987e-07 0.9999999403953552
vt 0 0
v -0.0 0.020000005140900612 0.2100428193807602
vn -0.0 2.970863590689987e-07 1.0
vt 0 0
v -0.011755704879760742 0.01618034578859806 0.2100428193807602
vn -0.0 2.970863590689987e-07 0.9999999403953552
vt 0 0
v -0.019021131098270416 0.006180344149470329 0.2100428193807602
vn -0.0 2.970863590689987e-07 0.9999999403953552
vt 0 0
v -0.019021129235625267 -0.006180335767567158 0.2100428193807602
vn -0.0 2.970863590689987e-07 0.9999999403953552
vt 0 0
v -0.011755703017115593 -0.016180334612727165 0.2100428193807602
vn -0.0 2.970863590689987e-07 1.0
vt 0 0
v -0.0 -0.019999993965029716 0.2100428193807602
vn -0.0 2.970863590689987e-07 1.0
vt 0 0
v 0.011755703017115593 -0.016180334612727165 0.2100428193807602
vn -0.0 2.970863590689987e-07 1.0
vt 0 0
v 0.019021129235625267 -0.006180335767567158 0.2100428193807602
vn -0.0 2.970863590689987e-07 0.9999999403953552
vt 0 0
v 0.019021131098270416 0.006180344149470329 0.2100428193807602
vn -0.0 2.970863590689987e-07 0.9999999403953552
vt 0 0
v -0.0 0.033256709575653076 0.044179510325193405
vn 0.22706522047519684 0.9636439085006714 -0.14082571864128113
vt 0 0
v 0.049663811922073364 1.1470054767093174e-10 -0.06814410537481308
vn 0.17720112204551697 0.9622552394866943 -0.2065545916557312
vt 0 0
v 0.02625821717083454 5.735027383546587e-11 -0.0861232802271843
vn 0.12930895388126373 0.9667367935180664 -0.22067877650260925
vt 0 0
v 0.08673922717571259 1.41102227124712e-10 -0.024223942309617996
vn 0.24661888182163239 0.9570279121398926 -0.15256641805171967
vt 0 0
v 0.06895633786916733 0.0 -0.04881909489631653
vn 0.21298740804195404 0.9593530297279358 -0.18514354526996613
vt 0 0
v 0.12050525099039078 4.699453048928603e-10 0.05243533104658127
vn 0.2706279158592224 0.9585839509963989 -0.08875468373298645
vt 0 0
v 0.11180491745471954 0.0 0.02816556580364704
vn 0.2694073021411896 0.9570962190628052 -0.1067078560590744
vt 0 0
v -0.0 0.033256709575653076 0.044179510325193405
vn -0.1460765302181244 0.6979084014892578 0.7011315226554871
vt 0 0
v -0.0 0.0 0.0772833377122879
vn -0.14607654511928558 0.6979084610939026 0.7011315822601318
vt 0 0
v 0.12806709110736847 0.0 0.10396534204483032
vn -0.14607654511928558 0.6979084610939026 0.7011315822601318
vt 0 0
v 0.011755704879760742 0.01618034578859806 0.2100428193807602
vn 0.5877851843833923 0.8090169429779053 -4.613831094957277e-08
vt 0 0
v 0.011755704879760742 0.016180336475372314 0.055774182081222534
vn 0.5877851843833923 0.8090170621871948 -4.613831094957277e-08
vt 0 0
v 0.019021131098270416 0.006180344149470329 0.2100428193807602
vn 0.9510565996170044 0.3090169429779053 -1.6048108619770574e-08
vt 0 0
v 0.019021131098270416 0.0061803353019058704 0.055774182081222534
vn 0.9510565996170044 0.3090169429779053 -1.6048106843413734e-08
vt 0 0
v 0.019021129235625267 -0.006180335767567158 0.2100428193807602
vn 0.9510565400123596 -0.3090170621871948 2.006013133382112e-08
vt 0 0
v 0.019021129235625267 -0.006180344615131617 0.055774182081222534
vn 0.9510565400123596 -0.3090170919895172 2.0060134886534797e-08
vt 0 0
v 0.011755703017115593 -0.016180334612727165 0.2100428193807602
vn 0.5877852439880371 -0.80901700258255 5.015034432176435e-08
vt 0 0
v 0.011755703017115593 -0.01618034392595291 0.055774182081222534
vn 0.5877853035926819 -0.80901700258255 5.015034432176435e-08
vt 0 0
v -0.011755703017115593 -0.016180334612727165 0.2100428193807602
vn -0.5877852439880371 -0.80901700258255 5.015034432176435e-08
vt 0 0
v -0.011755703017115593 -0.01618034392595291 0.055774182081222534
vn -0.5877853035926819 -0.80901700258255 5.015034432176435e-08
vt 0 0
v -0.019021129235625267 -0.006180335767567158 0.2100428193807602
vn -0.9510565400123596 -0.3090170621871948 2.006013133382112e-08
vt 0 0
v -0.019021129235625267 -0.006180344615131617 0.055774182081222534
vn -0.9510565400123596 -0.3090170919895172 2.0060134886534797e-08
vt 0 0
v -0.019021131098270416 0.006180344149470329 0.2100428193807602
vn -0.9510565996170044 0.3090169429779053 -1.6048108619770574e-08
vt 0 0
v -0.019021131098270416 0.0061803353019058704 0.055774182081222534
vn -0.9510565996170044 0.3090169429779053 -1.6048106843413734e-08
vt 0 0
v -0.011755704879760742 0.01618034578859806 0.2100428193807602
vn -0.5877851843833923 0.8090169429779053 -4.613831094957277e-08
vt 0 0
v -0.011755704879760742 0.016180336475372314 0.055774182081222534
vn -0.5877851843833923 0.8090170621871948 -4.613831094957277e-08
vt 0 0
v 0.011755704879760742 0.01618034578859806 0.2100428193807602
vn -0.0 2.970863590689987e-07 0.9999999403953552
vt 0 0
v -0.011755704879760742 0.01618034578859806 0.2100428193807602
vn -0.0 2.970863590689987e-07 0.9999999403953552
vt 0 0
v -0.019021131098270416 0.006180344149470329 0.2100428193807602
vn -0.0 2.970863590689987e-07 0.9999999403953552
vt 0 0
v -0.019021129235625267 -0.006180335767567158 0.2100428193807602
vn -0.0 2.970863590689987e-07 0.9999999403953552
vt 0 0
v -0.011755703017115593 -0.016180334612727165 0.2100428193807602
vn -0.0 2.970863590689987e-07 1.0
vt 0 0
v 0.011755703017115593 -0.016180334612727165 0.2100428193807602
vn -0.0 2.970863590689987e-07 1.0
vt 0 0
v 0.019021129235625267 -0.006180335767567158 0.2100428193807602
vn -0.0 2.970863590689987e-07 0.9999999403953552
vt 0 0
v 0.019021131098270416 0.006180344149470329 0.2100428193807602
vn -0.0 2.970863590689987e-07 0.9999999403953552
vt 0 0
v -0.049663811922073364 -1.1470054767093174e-10 -0.06814410537481308
vn -0.17720112204551697 0.9622552394866943 -0.2065545916557312
vt 0 0
v -0.06895633786916733 0.0 -0.04881909489631653
vn -0.21298746764659882 0.9593530297279358 -0.18514351546764374
vt 0 0
v -0.0 0.033256709575653076 0.044179510325193405
vn -0.22706517577171326 0.9636438488960266 -0.14082571864128113
vt 0 0
v -0.08673921227455139 -1.41102227124712e-10 -0.0242239348590374
vn -0.24661895632743835 0.9570279717445374 -0.15256640315055847
vt 0 0
v -0.09995345026254654 -7.055141193479386e-11 0.0016917565371841192
vn -0.2644329369068146 0.9560994505882263 -0.1262890249490738
vt 0 0
v -0.12050524353981018 0.0 0.05243533477187157
vn -0.2706279456615448 0.9585839509963989 -0.08875478059053421
vt 0 0
v -0.12842246890068054 0.0 0.07803159952163696
vn -0.25756382942199707 0.9658485054969788 -0.028241747990250587
vt 0 0
v -0.0 0.033256709575653076 0.044179510325193405
vn 0.1460765302181244 0.6979084014892578 0.7011315226554871
vt 0 0
v -0.12806709110736847 0.0 0.10396534204483032
vn 0.14607654511928558 0.6979084610939026 0.7011315822601318
vt 0 0
v -0.0 0.0 0.0772833377122879
vn 0.14607654511928558 0.6979084610939026 0.7011315822601318
vt 0 0
v -0.0 -0.020000005140900612 0.2100428193807602
vn -0.0 -1.0 -6.022785470349845e-08
vt 0 0
v -0.011755704879760742 -0.01618034578859806 0.2100428193807602
vn -0.5877851843833923 -0.8090169429779053 -4.613831094957277e-08
vt 0 0
v -0.011755704879760742 -0.016180336475372314 0.055774182081222534
vn -0.5877851843833923 -0.8090170621871948 -4.613831094957277e-08
vt 0 0
v -0.0 -0.019999995827674866 0.055774182081222534
vn -0.0 -1.0 -6.022785470349845e-08
vt 0 0
v -0.019021131098270416 -0.006180344149470329 0.2100428193807602
vn -0.9510565996170044 -0.3090169429779053 -1.6048108619770574e-08
vt 0 0
v -0.019021131098270416 -0.0061803353019058704 0.055774182081222534
vn -0.9510565996170044 -0.3090169429779053 -1.6048106843413734e-08
vt 0 0
v -0.019021129235625267 0.006180335767567158 0.2100428193807602
vn -0.9510565400123596 0.3090170621871948 2.006013133382112e-08
vt 0 0
v -0.019021129235625267 0.006180344615131617 0.055774182081222534
vn -0.9510565400123596 0.3090170919895172 2.0060134886534797e-08
vt 0 0
v -0.011755703017115593 0.016180334612727165 0.2100428193807602
vn -0.5877852439880371 0.80901700258255 5.015034432176435e-08
vt 0 0
v -0.011755703017115593 0.01618034392595291 0.055774182081222534
vn -0.5877853035926819 0.80901700258255 5.015034432176435e-08
vt 0 0
v -0.0 0.019999993965029716 0.2100428193807602
vn -0.0 1.0 6.022785470349845e-08
vt 0 0
v -0.0 0.020000003278255463 0.055774182081222534
vn -0.0 1.0 6.022785470349845e-08
vt 0 0
v 0.011755703017115593 0.016180334612727165 0.2100428193807602
vn 0.5877852439880371 0.80901700258255 5.015034432176435e-08
vt 0 0
v 0.011755703017115593 0.01618034392595291 0.055774182081222534
vn 0.5877853035926819 0.80901700258255 5.015034432176435e-08
vt 0 0
v 0.019021129235625267 0.006180335767567158 0.2100428193807602
vn 0.9510565400123596 0.3090170621871948 2.006013133382112e-08
vt 0 0
v 0.019021129235625267 0.006180344615131617 0.055774182081222534
vn 0.9510565400123596 0.3090170919895172 2.0060134886534797e-08
vt 0 0
v 0.019021131098270416 -0.006180344149470329 0.2100428193807602
vn 0.9510565996170044 -0.3090169429779053 -1.6048108619770574e-08
vt 0 0
v 0.019021131098270416 -0.0061803353019058704 0.055774182081222534
vn 0.9510565996170044 -0.3090169429779053 -1.6048106843413734e-08
vt 0 0
v 0.011755704879760742 -0.01618034578859806 0.2100428193807602
vn 0.5877851843833923 -0.8090169429779053 -4.613831094957277e-08
vt 0 0
v 0.011755704879760742 -0.016180336475372314 0.055774182081222534
vn 0.5877851843833923 -0.8090170621871948 -4.613831094957277e-08
vt 0 0
v -0.0 -0.020000005140900612 0.2100428193807602
vn -0.0 -1.0 -6.022785470349845e-08
vt 0 0
v -0.0 -0.019999995827674866 0.055774182081222534
vn -0.0 -1.0 -6.022785470349845e-08
vt 0 0
v -0.011755704879760742 -0.01618034578859806 0.2100428193807602
vn -0.0 -2.970863590689987e-07 0.9999999403953552
vt 0 0
v -0.0 -0.020000005140900612 0.2100428193807602
vn -0.0 -2.970863590689987e-07 1.0
vt 0 0
v 0.011755704879760742 -0.01618034578859806 0.2100428193807602
vn -0.0 -2.970863590689987e-07 0.9999999403953552
vt 0 0
v 0.019021131098270416 -0.006180344149470329 0.2100428193807602
vn -0.0 -2.970863590689987e-07 0.9999999403953552
vt 0 0
v 0.019021129235625267 0.006180335767567158 0.2100428193807602
vn -0.0 -2.970863590689987e-07 0.9999999403953552
vt 0 0
v 0.011755703017115593 0.016180334612727165 0.2100428193807602
vn -0.0 -2.970863590689987e-07 1.0
vt 0 0
v -0.0 0.019999993965029716 0.2100428193807602
vn -0.0 -2.970863590689987e-07 1.0
vt 0 0
v -0.011755703017115593 0.016180334612727165 0.2100428193807602
vn -0.0 -2.970863590689987e-07 1.0
vt 0 0
v -0.019021129235625267 0.006180335767567158 0.2100428193807602
vn -0.0 -2.970863590689987e-07 0.9999999403953552
vt 0 0
v -0.019021131098270416 -0.006180344149470329 0.2100428193807602
vn -0.0 -2.970863590689987e-07 0.9999999403953552
vt 0 0
v 0.049663811922073364 1.1470054767093174e-10 -0.06814410537481308
vn 0.17720112204551697 -0.9622552394866943 -0.2065545916557312
vt 0 0
v 0.06895633786916733 0.0 -0.04881909489631653
vn 0.21298740804195404 -0.9593530297279358 -0.18514354526996613
vt 0 0
v -0.0 -0.033256709575653076 0.044179510325193405
vn 0.22706516087055206 -0.9636437892913818 -0.14082571864128113
vt 0 0
v 0.08673922717571259 1.41102227124712e-10 -0.024223942309617996
vn 0.24661888182163239 -0.9570279121398926 -0.15256641805171967
vt 0 0
v 0.09995345771312714 7.055141193479386e-11 0.0016917515313252807
vn 0.26443296670913696 -0.9560995697975159 -0.12628890573978424
vt 0 0
v 0.12050525099039078 4.699453048928603e-10 0.05243533104658127
vn 0.2706279158592224 -0.9585839509963989 -0.08875464648008347
vt 0 0
v 0.12842245399951935 9.398906097857207e-10 0.07803159952163696
vn 0.25756388902664185 -0.965848445892334 -0.02824178896844387
vt 0 0
v -0.0 -0.033256709575653076 0.044179510325193405
vn -0.1460765302181244 -0.6979084014892578 0.7011315226554871
vt 0 0
v 0.12806709110736847 0.0 0.10396534204483032
vn -0.14607654511928558 -0.6979084610939026 0.7011315822601318
vt 0 0
v -0.0 0.0 0.0772833377122879
vn -0.14607654511928558 -0.6979084610939026 0.7011315822601318
vt 0 0
v 0.011755704879760742 -0.016180336475372314 0.055774182081222534
vn 0.5877851843833923 -0.8090170621871948 -4.448735779760682e-08
vt 0 0
v 0.011755704879760742 -0.01618034578859806 0.2100428193807602
vn 0.5877851843833923 -0.8090169429779053 -4.448735779760682e-08
vt 0 0
v 0.019021131098270416 -0.0061803353019058704 0.055774182081222534
vn 0.9510565996170044 -0.3090169429779053 -1.2556419015652409e-08
vt 0 0
v 0.019021131098270416 -0.006180344149470329 0.2100428193807602
vn 0.9510565996170044 -0.3090169429779053 -1.2556420792009249e-08
vt 0 0
v 0.019021129235625267 0.006180344615131617 0.055774182081222534
vn 0.9510565400123596 0.3090170919895172 2.3717108277310217e-08
vt 0 0
v 0.019021129235625267 0.006180335767567158 0.2100428193807602
vn 0.9510565400123596 0.3090170621871948 2.3717104724596538e-08
vt 0 0
v 0.011755703017115593 0.01618034392595291 0.055774182081222534
vn 0.5877853035926819 0.80901700258255 5.206146980185622e-08
vt 0 0
v 0.011755703017115593 0.016180334612727165 0.2100428193807602
vn 0.5877852439880371 0.80901700258255 5.206146980185622e-08
vt 0 0
v -0.011755703017115593 0.01618034392595291 0.055774182081222534
vn -0.5877853035926819 0.80901700258255 4.849938406437104e-08
vt 0 0
v -0.011755703017115593 0.016180334612727165 0.2100428193807602
vn -0.5877852439880371 0.80901700258255 4.8499380511657364e-08
vt 0 0
v -0.019021129235625267 0.006180344615131617 0.055774182081222534
vn -0.9510565400123596 0.3090170919895172 1.6568446170595053e-08
vt 0 0
v -0.019021129235625267 0.006180335767567158 0.2100428193807602
vn -0.9510565400123596 0.3090170621871948 1.6568444394238213e-08
vt 0 0
v -0.019021131098270416 -0.0061803353019058704 0.055774182081222534
vn -0.9510565996170044 -0.3090169429779053 -1.9705074905118636e-08
vt 0 0
v -0.019021131098270416 -0.006180344149470329 0.2100428193807602
vn -0.9510565996170044 -0.3090169429779053 -1.9705074905118636e-08
vt 0 0
v -0.011755704879760742 -0.016180336475372314 0.055774182081222534
vn -0.5877851843833923 -0.8090170621871948 -4.804943642966464e-08
vt 0 0
v -0.011755704879760742 -0.01618034578859806 0.2100428193807602
vn -0.5877851843833923 -0.8090169429779053 -4.804943642966464e-08
vt 0 0
v -0.011755704879760742 -0.01618034578859806 0.2100428193807602
vn -0.0 -2.970863590689987e-07 0.9999999403953552
vt 0 0
v 0.011755704879760742 -0.01618034578859806 0.2100428193807602
vn -0.0 -2.970863590689987e-07 0.9999999403953552
vt 0 0
v 0.019021131098270416 -0.006180344149470329 0.2100428193807602
vn -0.0 -2.970863590689987e-07 0.9999999403953552
vt 0 0
v 0.019021129235625267 0.006180335767567158 0.2100428193807602
vn -0.0 -2.970863590689987e-07 0.9999999403953552
vt 0 0
v 0.011755703017115593 0.016180334612727165 0.2100428193807602
vn -0.0 -2.970863590689987e-07 1.0
vt 0 0
v -0.011755703017115593 0.016180334612727165 0.2100428193807602
vn -0.0 -2.970863590689987e-07 1.0
vt 0 0
v -0.019021129235625267 0.006180335767567158 0.2100428193807602
vn -0.0 -2.970863590689987e-07 0.9999999403953552
vt 0 0
v -0.019021131098270416 -0.006180344149470329 0.2100428193807602
vn -0.0 -2.970863590689987e-07 0.9999999403953552
vt 0 0
v -0.0 -0.033256709575653076 0.044179510325193405
vn -0.22706517577171326 -0.9636438488960266 -0.14082568883895874
vt 0 0
v -0.049663811922073364 -1.1470054767093174e-10 -0.06814410537481308
vn -0.17720112204551697 -0.9622552394866943 -0.2065545916557312
vt 0 0
v -0.02625821717083454 -5.735027383546587e-11 -0.0861232802271843
vn -0.12930895388126373 -0.9667367935180664 -0.22067877650260925
vt 0 0
v -0.08673921227455139 -1.41102227124712e-10 -0.0242239348590374
vn -0.24661895632743835 -0.9570279717445374 -0.15256640315055847
vt 0 0
v -0.06895633786916733 0.0 -0.04881909489631653
vn -0.21298746764659882 -0.9593530893325806 -0.18514351546764374
vt 0 0
v -0.12050524353981018 0.0 0.05243533477187157
vn -0.2706279754638672 -0.9585839509963989 -0.08875478059053421
vt 0 0
v -0.11180492490530014 0.0 0.028165558353066444
vn -0.2694072425365448 -0.95709627866745 -0.10670776665210724
vt 0 0
v -0.0 -0.033256709575653076 0.044179510325193405
vn 0.1460765302181244 -0.6979084014892578 0.7011315226554871
vt 0 0
v -0.0 0.0 0.0772833377122879
vn 0.14607654511928558 -0.6979084610939026 0.7011315822601318
vt 0 0
v -0.12806709110736847 0.0 0.10396534204483032
vn 0.14607654511928558 -0.6979084610939026 0.7011315822601318
vt 0 0
v 5.551115123125783e-17 0.0 -0.09869137406349182
vn 0.107879638671875 0.9682774543762207 -0.22539035975933075
vt 0 0
v 0.09995345771312714 7.055141193479386e-11 0.0016917515313252807
vn 0.26443296670913696 0.9560995697975159 -0.12628890573978424
vt 0 0
v 0.12806709110736847 0.0 0.10396534204483032
vn 0.24984648823738098 0.9682794213294983 0.0034237289801239967
vt 0 0
v 0.12842245399951935 9.398906097857207e-10 0.07803159952163696
vn 0.25756385922431946 0.965848445892334 -0.02824167162179947
vt 0 0
v 5.551115123125783e-17 0.0 -0.09869137406349182
vn -0.107879638671875 0.9682774543762207 -0.22539035975933075
vt 0 0
v -0.02625821717083454 -5.735027383546587e-11 -0.0861232802271843
vn -0.12930895388126373 0.9667367935180664 -0.22067877650260925
vt 0 0
v -0.11180492490530014 0.0 0.028165558353066444
vn -0.2694072127342224 0.9570961594581604 -0.10670775920152664
vt 0 0
v -0.12806709110736847 0.0 0.10396534204483032
vn -0.24984636902809143 0.9682794809341431 0.0034237925428897142
vt 0 0
v 5.551115123125783e-17 0.0 -0.09869137406349182
vn 0.107879638671875 -0.9682774543762207 -0.22539035975933075
vt 0 0
v 0.02625821717083454 5.735027383546587e-11 -0.0861232802271843
vn 0.12930895388126373 -0.9667367935180664 -0.22067877650260925
vt 0 0
v 0.11180491745471954 0.0 0.02816556580364704
vn 0.2694073021411896 -0.9570960998535156 -0.1067078560590744
vt 0 0
v 0.12806709110736847 0.0 0.10396534204483032
vn 0.24984648823738098 -0.9682794213294983 0.003423524321988225
vt 0 0
v 5.551115123125783e-17 0.0 -0.09869137406349182
vn -0.107879638671875 -0.9682774543762207 -0.22539035975933075
vt 0 0
v -0.09995345026254654 -7.055141193479386e-11 0.0016917565371841192
vn -0.2644329369068146 -0.9560994505882263 -0.1262890100479126
vt 0 0
v -0.12806709110736847 0.0 0.10396534204483032
vn -0.2498464435338974 -0.9682794809341431 0.0034237937070429325
vt 0 0
v -0.12842246890068054 0.0 0.07803159952163696
vn -0.25756382942199707 -0.965848445892334 -0.028241751715540886
vt 0 0
f 1//1 2//2 3//3
f 1//1 3//3 4//4
f 4//4 3//3 5//5
f 4//4 5//5 6//6
f 6//6 5//5 7//7
f 6//6 7//7 8//8
f 8//8 7//7 9//9
f 8//8 9//9 10//10
f 10//10 9//9 11//11
f 10//10 11//11 12//12
f 12//12 11//11 13//13
f 12//12 13//13 14//14
f 14//14 13//13 15//15
f 14//14 15//15 16//16
f 16//16 15//15 17//17
f 16//16 17//17 18//18
f 18//18 17//17 19//19
f 18//18 19//19 20//20
f 20//20 19//19 21//21
f 20//20 21//21 22//22
f 23//23 24//24 25//25
f 25//25 26//26 27//27
f 27//27 28//28 29//29
f 29//29 30//30 31//31
f 31//31 32//32 23//23
f 23//23 25//25 27//27
f 27//27 29//29 31//31
f 27//27 31//31 23//23
f 33//33 34//34 35//35
f 36//36 37//37 33//33
f 38//38 39//39 33//33
f 40//40 41//41 42//42
f 1//1 43//43 44//44
f 1//1 44//44 2//2
f 43//43 45//45 46//46
f 43//43 46//46 44//44
f 45//45 47//47 48//48
f 45//45 48//48 46//46
f 47//47 49//49 50//50
f 47//47 50//50 48//48
f 49//49 12//12 11//11
f 49//49 11//11 50//50
f 12//12 51//51 52//52
f 12//12 52//52 11//11
f 51//51 53//53 54//54
f 51//51 54//54 52//52
f 53//53 55//55 56//56
f 53//53 56//56 54//54
f 55//55 57//57 58//58
f 55//55 58//58 56//56
f 57//57 22//22 21//21
f 57//57 21//21 58//58
f 59//59 24//24 60//60
f 60//60 61//61 62//62
f 62//62 63//63 29//29
f 29//29 64//64 65//65
f 65//65 66//66 59//59
f 59//59 60//60 62//62
f 62//62 29//29 65//65
f 62//62 65//65 59//59
f 67//67 68//68 69//69
f 69//69 70//70 71//71
f 69//69 72//72 73//73
f 74//74 75//75 76//76
f 77//77 78//78 79//79
f 77//77 79//79 80//80
f 78//78 81//81 82//82
f 78//78 82//82 79//79
f 81//81 83//83 84//84
f 81//81 84//84 82//82
f 83//83 85//85 86//86
f 83//83 86//86 84//84
f 85//85 87//87 88//88
f 85//85 88//88 86//86
f 87//87 89//89 90//90
f 87//87 90//90 88//88
f 89//89 91//91 92//92
f 89//89 92//92 90//90
f 91//91 93//93 94//94
f 91//91 94//94 92//92
f 93//93 95//95 96//96
f 93//93 96//96 94//94
f 95//95 97//97 98//98
f 95//95 98//98 96//96
f 99//99 100//100 101//101
f 101//101 102//102 103//103
f 103//103 104//104 105//105
f 105//105 106//106 107//107
f 107//107 108//108 99//99
f 99//99 101//101 103//103
f 103//103 105//105 107//107
f 103//103 107//107 99//99
f 109//109 110//110 111//111
f 111//111 112//112 113//113
f 111//111 114//114 115//115
f 116//116 117//117 118//118
f 77//77 80//80 119//119
f 77//77 119//119 120//120
f 120//120 119//119 121//121
f 120//120 121//121 122//122
f 122//122 121//121 123//123
f 122//122 123//123 124//124
f 124//124 123//123 125//125
f 124//124 125//125 126//126
f 126//126 125//125 88//88
f 126//126 88//88 87//87
f 87//87 88//88 127//127
f 87//87 127//127 128//128
f 128//128 127//127 129//129
f 128//128 129//129 130//130
f 130//130 129//129 131//131
f 130//130 131//131 132//132
f 132//132 131//131 133//133
f 132//132 133//133 134//134
f 134//134 133//133 98//98
f 134//134 98//98 97//97
f 135//135 100//100 136//136
f 136//136 137//137 138//138
f 138//138 139//139 105//105
f 105//105 140//140 141//141
f 141//141 142//142 135//135
f 135//135 136//136 138//138
f 138//138 105//105 141//141
f 138//138 141//141 135//135
f 143//143 144//144 145//145
f 146//146 147//147 143//143
f 148//148 149//149 143//143
f 150//150 151//151 152//152
f 35//35 153//153 33//33
f 33//33 37//37 34//34
f 33//33 39//39 154//154
f 154//154 36//36 33//33
f 33//33 155//155 156//156
f 156//156 38//38 33//33
f 69//69 157//157 158//158
f 158//158 67//67 69//69
f 71//71 159//159 69//69
f 69//69 68//68 70//70
f 73//73 160//160 69//69
f 69//69 159//159 72//72
f 111//111 161//161 162//162
f 162//162 109//109 111//111
f 113//113 163//163 111//111
f 111//111 110//110 112//112
f 115//115 164//164 111//111
f 111//111 163//163 114//114
f 145//145 165//165 143//143
f 143//143 147//147 144//144
f 143//143 149//149 166//166
f 166//166 146//146 143//143
f 143//143 167//167 168//168
f 168//168 148//148 143//143
